# xmcd CD database file
#
# Track frame offsets:
#	150
#	18308
#	44012
#	61697
#	87370
#	110205
#	136250
#	154823
#	174100
#	190156
#	210920
#
# Disc length: 3114 seconds
#
# Revision: 0
# Processed by: cddbd v1.5.1PL2 Copyright (c) Steve Scherf et al.
# Submitted via: CDex 1.51
#
DISCID=8b0c280b
DTITLE=beret - best best beret!!B
DYEAR=2006
DGENRE=Pop
TTITLE0=ベストガールフレンド
TTITLE1=bitter sweet
TTITLE2=ヒマワリ
TTITLE3=サルサーカス・ランデヴー-featuring BOO
TTITLE4=愛の言葉
TTITLE5=プレゼント
TTITLE6=恋は・・・
TTITLE7=雨上がりのカメラ
TTITLE8=PM6:30　風のテーブル
TTITLE9=アネモネ
TTITLE10=やさしい花びら
EXTD=YEAR: 2006
EXTT0=
EXTT1=
EXTT2=
EXTT3=
EXTT4=
EXTT5=
EXTT6=
EXTT7=
EXTT8=
EXTT9=
EXTT10=
PLAYORDER=
